<svg id="visual" viewBox="0 0 1920 1080" width="1920" height="1080" xmlns="http://www.w3.org/2000/svg" xmlns:xlink="http://www.w3.org/1999/xlink" version="1.1"><g stroke-width="1" stroke-linejoin="bevel"><path d="M1037.7 501L1071.7 352L827.3 366Z" fill="#18252b" stroke="#18252b"></path><path d="M827.3 366L825.3 509L1037.7 501Z" fill="#79878e" stroke="#79878e"></path><path d="M1071.7 352L1048.7 211L827.3 366Z" fill="#9dacb3" stroke="#9dacb3"></path><path d="M1048.7 211L848.3 175L827.3 366Z" fill="#46545a" stroke="#46545a"></path><path d="M676 187L667 376L827.3 366Z" fill="#000000" stroke="#000000"></path><path d="M827.3 366L667 376L825.3 509Z" fill="#36444a" stroke="#36444a"></path><path d="M825.3 509L1039.7 684L1037.7 501Z" fill="#18252b" stroke="#18252b"></path><path d="M1298 510L1304 349L1071.7 352Z" fill="#46545a" stroke="#46545a"></path><path d="M678 725L842.3 724L825.3 509Z" fill="#67767c" stroke="#67767c"></path><path d="M825.3 509L842.3 724L1039.7 684Z" fill="#09171c" stroke="#09171c"></path><path d="M848.3 175L676 187L827.3 366Z" fill="#79878e" stroke="#79878e"></path><path d="M1298 510L1071.7 352L1037.7 501Z" fill="#46545a" stroke="#46545a"></path><path d="M1071.7 352L1306 213L1048.7 211Z" fill="#8b9aa0" stroke="#8b9aa0"></path><path d="M1283 688L1298 510L1037.7 501Z" fill="#18252b" stroke="#18252b"></path><path d="M422.7 378L605 537L667 376Z" fill="#46545a" stroke="#46545a"></path><path d="M667 376L605 537L825.3 509Z" fill="#9dacb3" stroke="#9dacb3"></path><path d="M1304 349L1306 213L1071.7 352Z" fill="#67767c" stroke="#67767c"></path><path d="M1048.7 211L886.3 0L848.3 175Z" fill="#8b9aa0" stroke="#8b9aa0"></path><path d="M1090.7 0L886.3 0L1048.7 211Z" fill="#8b9aa0" stroke="#8b9aa0"></path><path d="M848.3 175L659 0L676 187Z" fill="#8b9aa0" stroke="#8b9aa0"></path><path d="M605 537L678 725L825.3 509Z" fill="#67767c" stroke="#67767c"></path><path d="M1255 0L1090.7 0L1048.7 211Z" fill="#79878e" stroke="#79878e"></path><path d="M1039.7 684L1283 688L1037.7 501Z" fill="#09171c" stroke="#09171c"></path><path d="M1259 881L1283 688L1039.7 684Z" fill="#36444a" stroke="#36444a"></path><path d="M886.3 0L659 0L848.3 175Z" fill="#8b9aa0" stroke="#8b9aa0"></path><path d="M676 187L422.7 378L667 376Z" fill="#09171c" stroke="#09171c"></path><path d="M1306 213L1255 0L1048.7 211Z" fill="#67767c" stroke="#67767c"></path><path d="M677 873L887.3 915L842.3 724Z" fill="#27343a" stroke="#27343a"></path><path d="M842.3 724L887.3 915L1039.7 684Z" fill="#8b9aa0" stroke="#8b9aa0"></path><path d="M399.7 183L422.7 378L676 187Z" fill="#27343a" stroke="#27343a"></path><path d="M605 537L433.7 702L678 725Z" fill="#09171c" stroke="#09171c"></path><path d="M887.3 915L1081.7 921L1039.7 684Z" fill="#56656b" stroke="#56656b"></path><path d="M422.7 378L438.7 552L605 537Z" fill="#56656b" stroke="#56656b"></path><path d="M678 725L677 873L842.3 724Z" fill="#46545a" stroke="#46545a"></path><path d="M433.7 702L677 873L678 725Z" fill="#000000" stroke="#000000"></path><path d="M1298 510L1482.3 534L1304 349Z" fill="#36444a" stroke="#36444a"></path><path d="M1304 349L1493.3 218L1306 213Z" fill="#46545a" stroke="#46545a"></path><path d="M1306 213L1479.3 0L1255 0Z" fill="#8b9aa0" stroke="#8b9aa0"></path><path d="M1283 688L1482.3 534L1298 510Z" fill="#9dacb3" stroke="#9dacb3"></path><path d="M1510.3 701L1482.3 534L1283 688Z" fill="#18252b" stroke="#18252b"></path><path d="M1081.7 921L1259 881L1039.7 684Z" fill="#36444a" stroke="#36444a"></path><path d="M1531.3 381L1493.3 218L1304 349Z" fill="#27343a" stroke="#27343a"></path><path d="M1482.3 534L1531.3 381L1304 349Z" fill="#000000" stroke="#000000"></path><path d="M659 0L399.7 183L676 187Z" fill="#18252b" stroke="#18252b"></path><path d="M243.3 715L433.7 702L438.7 552Z" fill="#18252b" stroke="#18252b"></path><path d="M189.3 511L438.7 552L422.7 378Z" fill="#36444a" stroke="#36444a"></path><path d="M438.7 552L433.7 702L605 537Z" fill="#56656b" stroke="#56656b"></path><path d="M1486.3 906L1510.3 701L1283 688Z" fill="#46545a" stroke="#46545a"></path><path d="M1710.7 503L1702.7 384L1531.3 381Z" fill="#8b9aa0" stroke="#8b9aa0"></path><path d="M1692.7 0L1479.3 0L1493.3 218Z" fill="#18252b" stroke="#18252b"></path><path d="M1493.3 218L1479.3 0L1306 213Z" fill="#27343a" stroke="#27343a"></path><path d="M887.3 915L1082.7 1080L1081.7 921Z" fill="#27343a" stroke="#27343a"></path><path d="M1081.7 921L1278 1080L1259 881Z" fill="#9dacb3" stroke="#9dacb3"></path><path d="M1259 881L1486.3 906L1283 688Z" fill="#36444a" stroke="#36444a"></path><path d="M816.3 1080L1082.7 1080L887.3 915Z" fill="#56656b" stroke="#56656b"></path><path d="M623 1080L816.3 1080L677 873Z" fill="#56656b" stroke="#56656b"></path><path d="M677 873L816.3 1080L887.3 915Z" fill="#27343a" stroke="#27343a"></path><path d="M659 0L386.7 0L399.7 183Z" fill="#09171c" stroke="#09171c"></path><path d="M399.7 183L238.3 365L422.7 378Z" fill="#8b9aa0" stroke="#8b9aa0"></path><path d="M241.3 181L238.3 365L399.7 183Z" fill="#000000" stroke="#000000"></path><path d="M1278 1080L1486.3 906L1259 881Z" fill="#18252b" stroke="#18252b"></path><path d="M386.7 0L241.3 181L399.7 183Z" fill="#56656b" stroke="#56656b"></path><path d="M1710.7 503L1531.3 381L1482.3 534Z" fill="#000000" stroke="#000000"></path><path d="M1531.3 381L1684.7 216L1493.3 218Z" fill="#79878e" stroke="#79878e"></path><path d="M1710.7 503L1482.3 534L1510.3 701Z" fill="#09171c" stroke="#09171c"></path><path d="M1082.7 1080L1278 1080L1081.7 921Z" fill="#8b9aa0" stroke="#8b9aa0"></path><path d="M401.7 919L623 1080L677 873Z" fill="#36444a" stroke="#36444a"></path><path d="M401.7 919L677 873L433.7 702Z" fill="#79878e" stroke="#79878e"></path><path d="M243.3 715L401.7 919L433.7 702Z" fill="#46545a" stroke="#46545a"></path><path d="M1702.7 384L1684.7 216L1531.3 381Z" fill="#18252b" stroke="#18252b"></path><path d="M1731.7 685L1710.7 503L1510.3 701Z" fill="#9dacb3" stroke="#9dacb3"></path><path d="M0 389L189.3 511L238.3 365Z" fill="#9dacb3" stroke="#9dacb3"></path><path d="M238.3 365L189.3 511L422.7 378Z" fill="#18252b" stroke="#18252b"></path><path d="M189.3 511L243.3 715L438.7 552Z" fill="#000000" stroke="#000000"></path><path d="M386.7 0L245.3 0L241.3 181Z" fill="#27343a" stroke="#27343a"></path><path d="M0 198L0 389L238.3 365Z" fill="#9dacb3" stroke="#9dacb3"></path><path d="M1718.7 862L1731.7 685L1510.3 701Z" fill="#56656b" stroke="#56656b"></path><path d="M1710.7 503L1920 357L1702.7 384Z" fill="#8b9aa0" stroke="#8b9aa0"></path><path d="M1684.7 216L1692.7 0L1493.3 218Z" fill="#79878e" stroke="#79878e"></path><path d="M1920 174L1692.7 0L1684.7 216Z" fill="#09171c" stroke="#09171c"></path><path d="M1920 357L1684.7 216L1702.7 384Z" fill="#000000" stroke="#000000"></path><path d="M0 700L228.3 864L243.3 715Z" fill="#8b9aa0" stroke="#8b9aa0"></path><path d="M243.3 715L228.3 864L401.7 919Z" fill="#000000" stroke="#000000"></path><path d="M401.7 919L410.7 1080L623 1080Z" fill="#8b9aa0" stroke="#8b9aa0"></path><path d="M1486.3 906L1718.7 862L1510.3 701Z" fill="#56656b" stroke="#56656b"></path><path d="M1278 1080L1487.3 1080L1486.3 906Z" fill="#36444a" stroke="#36444a"></path><path d="M222.3 1080L410.7 1080L401.7 919Z" fill="#9dacb3" stroke="#9dacb3"></path><path d="M1693.7 1080L1718.7 862L1486.3 906Z" fill="#9dacb3" stroke="#9dacb3"></path><path d="M0 198L238.3 365L241.3 181Z" fill="#9dacb3" stroke="#9dacb3"></path><path d="M189.3 511L0 700L243.3 715Z" fill="#46545a" stroke="#46545a"></path><path d="M0 389L0 508L189.3 511Z" fill="#18252b" stroke="#18252b"></path><path d="M1920 538L1710.7 503L1731.7 685Z" fill="#000000" stroke="#000000"></path><path d="M1920 538L1920 357L1710.7 503Z" fill="#56656b" stroke="#56656b"></path><path d="M0 0L0 198L241.3 181Z" fill="#79878e" stroke="#79878e"></path><path d="M1920 698L1920 538L1731.7 685Z" fill="#36444a" stroke="#36444a"></path><path d="M1920 357L1920 174L1684.7 216Z" fill="#09171c" stroke="#09171c"></path><path d="M228.3 864L222.3 1080L401.7 919Z" fill="#9dacb3" stroke="#9dacb3"></path><path d="M0 862L222.3 1080L228.3 864Z" fill="#67767c" stroke="#67767c"></path><path d="M0 508L0 700L189.3 511Z" fill="#9dacb3" stroke="#9dacb3"></path><path d="M1487.3 1080L1693.7 1080L1486.3 906Z" fill="#79878e" stroke="#79878e"></path><path d="M1718.7 862L1920 698L1731.7 685Z" fill="#56656b" stroke="#56656b"></path><path d="M1920 894L1920 698L1718.7 862Z" fill="#56656b" stroke="#56656b"></path><path d="M245.3 0L0 0L241.3 181Z" fill="#8b9aa0" stroke="#8b9aa0"></path><path d="M1920 174L1920 0L1692.7 0Z" fill="#9dacb3" stroke="#9dacb3"></path><path d="M0 700L0 862L228.3 864Z" fill="#56656b" stroke="#56656b"></path><path d="M1693.7 1080L1920 894L1718.7 862Z" fill="#56656b" stroke="#56656b"></path><path d="M0 862L0 1080L222.3 1080Z" fill="#27343a" stroke="#27343a"></path><path d="M1693.7 1080L1920 1080L1920 894Z" fill="#67767c" stroke="#67767c"></path></g></svg>