<svg id="visual" viewBox="0 0 900 600" width="900" height="600" xmlns="http://www.w3.org/2000/svg" xmlns:xlink="http://www.w3.org/1999/xlink" version="1.1"><path d="M0 139L13.7 142C27.3 145 54.7 151 82 146C109.3 141 136.7 125 163.8 148C191 171 218 233 245.2 230C272.3 227 299.7 159 327 127C354.3 95 381.7 99 409 107C436.3 115 463.7 127 491 123C518.3 119 545.7 99 573 103C600.3 107 627.7 135 654.8 163C682 191 709 219 736.2 235C763.3 251 790.7 255 818 240C845.3 225 872.7 191 886.3 174L900 157L900 0L886.3 0C872.7 0 845.3 0 818 0C790.7 0 763.3 0 736.2 0C709 0 682 0 654.8 0C627.7 0 600.3 0 573 0C545.7 0 518.3 0 491 0C463.7 0 436.3 0 409 0C381.7 0 354.3 0 327 0C299.7 0 272.3 0 245.2 0C218 0 191 0 163.8 0C136.7 0 109.3 0 82 0C54.7 0 27.3 0 13.7 0L0 0Z" fill="#425066"></path><path d="M0 193L13.7 198C27.3 203 54.7 213 82 209C109.3 205 136.7 187 163.8 209C191 231 218 293 245.2 302C272.3 311 299.7 267 327 239C354.3 211 381.7 199 409 210C436.3 221 463.7 255 491 261C518.3 267 545.7 245 573 241C600.3 237 627.7 251 654.8 267C682 283 709 301 736.2 315C763.3 329 790.7 339 818 322C845.3 305 872.7 261 886.3 239L900 217L900 155L886.3 172C872.7 189 845.3 223 818 238C790.7 253 763.3 249 736.2 233C709 217 682 189 654.8 161C627.7 133 600.3 105 573 101C545.7 97 518.3 117 491 121C463.7 125 436.3 113 409 105C381.7 97 354.3 93 327 125C299.7 157 272.3 225 245.2 228C218 231 191 169 163.8 146C136.7 123 109.3 139 82 144C54.7 149 27.3 143 13.7 140L0 137Z" fill="#323e52"></path><path d="M0 259L13.7 266C27.3 273 54.7 287 82 282C109.3 277 136.7 253 163.8 274C191 295 218 361 245.2 376C272.3 391 299.7 355 327 329C354.3 303 381.7 287 409 291C436.3 295 463.7 319 491 322C518.3 325 545.7 307 573 301C600.3 295 627.7 301 654.8 313C682 325 709 343 736.2 358C763.3 373 790.7 385 818 369C845.3 353 872.7 309 886.3 287L900 265L900 215L886.3 237C872.7 259 845.3 303 818 320C790.7 337 763.3 327 736.2 313C709 299 682 281 654.8 265C627.7 249 600.3 235 573 239C545.7 243 518.3 265 491 259C463.7 253 436.3 219 409 208C381.7 197 354.3 209 327 237C299.7 265 272.3 309 245.2 300C218 291 191 229 163.8 207C136.7 185 109.3 203 82 207C54.7 211 27.3 201 13.7 196L0 191Z" fill="#222d3e"></path><path d="M0 493L13.7 501C27.3 509 54.7 525 82 523C109.3 521 136.7 501 163.8 504C191 507 218 533 245.2 533C272.3 533 299.7 507 327 496C354.3 485 381.7 489 409 492C436.3 495 463.7 497 491 495C518.3 493 545.7 487 573 484C600.3 481 627.7 481 654.8 482C682 483 709 485 736.2 487C763.3 489 790.7 491 818 491C845.3 491 872.7 489 886.3 488L900 487L900 263L886.3 285C872.7 307 845.3 351 818 367C790.7 383 763.3 371 736.2 356C709 341 682 323 654.8 311C627.7 299 600.3 293 573 299C545.7 305 518.3 323 491 320C463.7 317 436.3 293 409 289C381.7 285 354.3 301 327 327C299.7 353 272.3 389 245.2 374C218 359 191 293 163.8 272C136.7 251 109.3 275 82 280C54.7 285 27.3 271 13.7 264L0 257Z" fill="#1f2736"></path><path d="M0 601L13.7 601C27.3 601 54.7 601 82 601C109.3 601 136.7 601 163.8 601C191 601 218 601 245.2 601C272.3 601 299.7 601 327 601C354.3 601 381.7 601 409 601C436.3 601 463.7 601 491 601C518.3 601 545.7 601 573 601C600.3 601 627.7 601 654.8 601C682 601 709 601 736.2 601C763.3 601 790.7 601 818 601C845.3 601 872.7 601 886.3 601L900 601L900 485L886.3 486C872.7 487 845.3 489 818 489C790.7 489 763.3 487 736.2 485C709 483 682 481 654.8 480C627.7 479 600.3 479 573 482C545.7 485 518.3 491 491 493C463.7 495 436.3 493 409 490C381.7 487 354.3 483 327 494C299.7 505 272.3 531 245.2 531C218 531 191 505 163.8 502C136.7 499 109.3 519 82 521C54.7 523 27.3 507 13.7 499L0 491Z" fill="#1b222e"></path></svg>