<svg width="1350" height="800" viewBox="0 0 1350 800" fill="none" xmlns="http://www.w3.org/2000/svg">
<g clip-path="url(#clip0)">
<rect width="1350" height="800" fill="white"/>
<rect x="463.135" y="49.4001" width="28" height="80.5" rx="14" transform="rotate(32.3947 463.135 49.4001)" fill="#DBECFF"/>
<rect x="511.62" y="-27.0161" width="28" height="80.5" rx="14" transform="rotate(32.3947 511.62 -27.0161)" fill="#F8FFFF"/>
<rect x="527.308" y="90.1169" width="28" height="80.5" rx="14" transform="rotate(32.3947 527.308 90.1169)" fill="#E8F6FF"/>
<rect x="398.962" y="8.68335" width="28" height="80.5" rx="14" transform="rotate(32.3947 398.962 8.68335)" fill="#FAFFFF"/>
<rect x="447.448" y="-67.7329" width="28" height="80.5" rx="14" transform="rotate(32.3947 447.448 -67.7329)" fill="#FBFFFF"/>
<rect x="108.051" y="467.18" width="28" height="80.5" rx="14" transform="rotate(32.3947 108.051 467.18)" fill="#F0FEFF"/>
<rect x="59.5659" y="543.597" width="28" height="80.5" rx="14" transform="rotate(32.3947 59.5659 543.597)" fill="#F7FFFF"/>
<rect x="591.481" y="130.834" width="28" height="80.5" rx="14" transform="rotate(32.3947 591.481 130.834)" fill="#EAF8FF"/>
<rect x="542.995" y="207.25" width="28" height="80.5" rx="14" transform="rotate(32.3947 542.995 207.25)" fill="#F7FFFF"/>
<rect x="555.527" y="258.428" width="28" height="80.5" rx="14" transform="rotate(32.3947 555.527 258.428)" fill="#FAFFFF"/>
<rect x="350.477" y="85.0994" width="28" height="80.5" rx="14" transform="rotate(32.3947 350.477 85.0994)" fill="#F5FFFF"/>
<rect x="301.992" y="161.516" width="28" height="80.5" rx="14" transform="rotate(32.3947 301.992 161.516)" fill="#FBFFFF"/>
<rect x="655.653" y="171.551" width="28" height="80.5" rx="14" transform="rotate(32.3947 655.653 171.551)" fill="#EDFBFF"/>
<rect x="783.999" y="252.984" width="28" height="80.5" rx="14" transform="rotate(32.3947 783.999 252.984)" fill="#F5FFFF"/>
<rect x="912.344" y="334.418" width="28" height="80.5" rx="14" transform="rotate(32.3947 912.344 334.418)" fill="#F5FFFF"/>
<rect x="1104.86" y="456.569" width="28" height="80.5" rx="14" transform="rotate(32.3947 1104.86 456.569)" fill="#F9FFFF"/>
<rect x="863.859" y="410.834" width="28" height="80.5" rx="14" transform="rotate(32.3947 863.859 410.834)" fill="#F5FFFF"/>
<rect x="832.484" y="176.568" width="28" height="80.5" rx="14" transform="rotate(32.3947 832.484 176.568)" fill="#F5FFFF"/>
<rect x="896.656" y="217.285" width="28" height="80.5" rx="14" transform="rotate(32.3947 896.656 217.285)" fill="#F2FFFF"/>
<rect x="1025" y="298.719" width="28" height="80.5" rx="14" transform="rotate(32.3947 1025 298.719)" fill="#E9F7FF"/>
<rect x="1217.52" y="420.869" width="28" height="80.5" rx="14" transform="rotate(32.3947 1217.52 420.869)" fill="#F4FFFF"/>
<rect x="945.142" y="140.869" width="28" height="80.5" rx="14" transform="rotate(32.3947 945.142 140.869)" fill="#F7FFFF"/>
<rect x="1009.31" y="181.586" width="28" height="80.5" rx="14" transform="rotate(32.3947 1009.31 181.586)" fill="#F1FFFF"/>
<rect x="1057.8" y="105.17" width="28" height="80.5" rx="14" transform="rotate(32.3947 1057.8 105.17)" fill="#F4FFFF"/>
<rect x="1073.49" y="222.303" width="28" height="80.5" rx="14" transform="rotate(32.3947 1073.49 222.303)" fill="#F8FFFF"/>
<rect x="1137.66" y="263.02" width="28" height="80.5" rx="14" transform="rotate(32.3947 1137.66 263.02)" fill="#F4FFFF"/>
<rect x="1201.83" y="303.736" width="28" height="80.5" rx="14" transform="rotate(32.3947 1201.83 303.736)" fill="#F5FFFF"/>
<rect x="1121.97" y="145.887" width="28" height="80.5" rx="14" transform="rotate(32.3947 1121.97 145.887)" fill="#F5FFFF"/>
<rect x="1186.15" y="186.604" width="28" height="80.5" rx="14" transform="rotate(32.3947 1186.15 186.604)" fill="#F4FFFF"/>
<rect x="1250.32" y="227.32" width="28" height="80.5" rx="14" transform="rotate(32.3947 1250.32 227.32)" fill="#F7FFFF"/>
<rect x="1283.12" y="33.7712" width="28" height="80.5" rx="14" transform="rotate(32.3947 1283.12 33.7712)" fill="#F8FFFF"/>
<rect x="1234.63" y="110.187" width="28" height="80.5" rx="14" transform="rotate(32.3947 1234.63 110.187)" fill="#F7FFFF"/>
<rect x="1298.8" y="150.904" width="28" height="80.5" rx="14" transform="rotate(32.3947 1298.8 150.904)" fill="#F4FFFF"/>
<rect x="1170.46" y="69.4705" width="28" height="80.5" rx="14" transform="rotate(32.3947 1170.46 69.4705)" fill="#F7FFFF"/>
<rect x="1331.6" y="-42.6453" width="28" height="80.5" rx="14" transform="rotate(32.3947 1331.6 -42.6453)" fill="#FBFFFF"/>
<rect x="1042.11" y="-11.9634" width="28" height="80.5" rx="14" transform="rotate(32.3947 1042.11 -11.9634)" fill="#F5FFFF"/>
<rect x="735.513" y="329.401" width="28" height="80.5" rx="14" transform="rotate(32.3947 735.513 329.401)" fill="#F5FFFF"/>
<rect x="799.686" y="370.118" width="28" height="80.5" rx="14" transform="rotate(32.3947 799.686 370.118)" fill="#EEFCFF"/>
<rect x="751.201" y="446.534" width="28" height="80.5" rx="14" transform="rotate(32.3947 751.201 446.534)" fill="#F2FFFF"/>
<rect x="478.823" y="166.533" width="28" height="80.5" rx="14" transform="rotate(32.3947 478.823 166.533)" fill="#EEFCFF"/>
<rect x="286.305" y="44.3826" width="28" height="80.5" rx="14" transform="rotate(32.3947 286.305 44.3826)" fill="#F8FFFF"/>
<rect x="237.819" y="120.799" width="28" height="80.5" rx="14" transform="rotate(32.3947 237.819 120.799)" fill="#F7FFFF"/>
<rect x="943.719" y="568.684" width="28" height="80.5" rx="14" transform="rotate(32.3947 943.719 568.684)" fill="#EDFBFF"/>
<rect x="1072.06" y="650.118" width="28" height="80.5" rx="14" transform="rotate(32.3947 1072.06 650.118)" fill="#E8F6FF"/>
<rect x="1200.41" y="731.552" width="28" height="80.5" rx="14" transform="rotate(32.3947 1200.41 731.552)" fill="#F6FFFF"/>
<rect x="1297.38" y="578.719" width="28" height="80.5" rx="14" transform="rotate(32.3947 1297.38 578.719)" fill="#FBFFFF"/>
<rect x="1136.24" y="690.835" width="28" height="80.5" rx="14" transform="rotate(32.3947 1136.24 690.835)" fill="#DBECFF"/>
<rect x="1120.55" y="573.702" width="28" height="80.5" rx="14" transform="rotate(32.3947 1120.55 573.702)" fill="#F4FFFF"/>
<rect x="1248.9" y="655.136" width="28" height="80.5" rx="14" transform="rotate(32.3947 1248.9 655.136)" fill="#F5FFFF"/>
<rect x="1087.75" y="767.251" width="28" height="80.5" rx="14" transform="rotate(32.3947 1087.75 767.251)" fill="#F4FFFF"/>
<rect x="1313.07" y="695.853" width="28" height="80.5" rx="14" transform="rotate(32.3947 1313.07 695.853)" fill="#F8FFFF"/>
<rect x="189.334" y="197.215" width="28" height="80.5" rx="14" transform="rotate(32.3947 189.334 197.215)" fill="#F5FFFF"/>
<rect x="140.849" y="273.631" width="28" height="80.5" rx="14" transform="rotate(32.3947 140.849 273.631)" fill="#F0FEFF"/>
<rect x="222.132" y="3.66577" width="28" height="80.5" rx="14" transform="rotate(32.3947 222.132 3.66577)" fill="#F7FFFF"/>
<rect x="173.646" y="80.0818" width="28" height="80.5" rx="14" transform="rotate(32.3947 173.646 80.0818)" fill="#ECFAFF"/>
<rect x="125.161" y="156.498" width="28" height="80.5" rx="14" transform="rotate(32.3947 125.161 156.498)" fill="#F8FFFF"/>
<rect x="109.474" y="39.365" width="28" height="80.5" rx="14" transform="rotate(32.3947 109.474 39.365)" fill="#F9FFFF"/>
<rect x="60.9886" y="115.781" width="28" height="80.5" rx="14" transform="rotate(32.3947 60.9886 115.781)" fill="#EFFDFF"/>
<rect x="76.676" y="232.914" width="28" height="80.5" rx="14" transform="rotate(32.3947 76.676 232.914)" fill="#F3FFFF"/>
<rect x="381.852" y="319.365" width="28" height="80.5" rx="14" transform="rotate(32.3947 381.852 319.365)" fill="#F4FFFF"/>
<rect x="446.025" y="360.082" width="28" height="80.5" rx="14" transform="rotate(32.3947 446.025 360.082)" fill="#F5FFFF"/>
<rect x="574.37" y="441.516" width="28" height="80.5" rx="14" transform="rotate(32.3947 574.37 441.516)" fill="#E9F7FF"/>
<rect x="638.543" y="482.233" width="28" height="80.5" rx="14" transform="rotate(32.3947 638.543 482.233)" fill="#F5FFFF"/>
<rect x="766.889" y="563.667" width="28" height="80.5" rx="14" transform="rotate(32.3947 766.889 563.667)" fill="#EEFCFF"/>
<rect x="815.374" y="487.25" width="28" height="80.5" rx="14" transform="rotate(32.3947 815.374 487.25)" fill="#F7FFFF"/>
<rect x="522.729" y="451.978" width="28" height="80.5" rx="14" transform="rotate(32.3947 522.729 451.978)" fill="#F7FFFF"/>
<rect x="586.902" y="492.694" width="28" height="80.5" rx="14" transform="rotate(32.3947 586.902 492.694)" fill="#F5FFFF"/>
<rect x="651.075" y="533.411" width="28" height="80.5" rx="14" transform="rotate(32.3947 651.075 533.411)" fill="#F9FFFF"/>
<rect x="699.56" y="456.995" width="28" height="80.5" rx="14" transform="rotate(32.3947 699.56 456.995)" fill="#F1FFFF"/>
<rect x="779.42" y="614.845" width="28" height="80.5" rx="14" transform="rotate(32.3947 779.42 614.845)" fill="#FAFFFF"/>
<rect x="827.905" y="538.429" width="28" height="80.5" rx="14" transform="rotate(32.3947 827.905 538.429)" fill="#FAFFFF"/>
<rect x="425.759" y="604.81" width="28" height="80.5" rx="14" transform="rotate(32.3947 425.759 604.81)" fill="#F3FFFF"/>
<rect x="618.277" y="726.961" width="28" height="80.5" rx="14" transform="rotate(32.3947 618.277 726.961)" fill="#F5FFFF"/>
<rect x="361.586" y="564.093" width="28" height="80.5" rx="14" transform="rotate(32.3947 361.586 564.093)" fill="#F8FFFF"/>
<rect x="525.885" y="517.932" width="28" height="80.5" rx="14" transform="rotate(32.3947 525.885 517.932)" fill="#F3FFFF"/>
<rect x="297.413" y="523.376" width="28" height="80.5" rx="14" transform="rotate(32.3947 297.413 523.376)" fill="#FAFFFF"/>
<rect x="590.058" y="558.649" width="28" height="80.5" rx="14" transform="rotate(32.3947 590.058 558.649)" fill="#F9FFFF"/>
<rect x="477.4" y="594.349" width="28" height="80.5" rx="14" transform="rotate(32.3947 477.4 594.349)" fill="#F5FFFF"/>
<rect x="605.745" y="675.782" width="28" height="80.5" rx="14" transform="rotate(32.3947 605.745 675.782)" fill="#F5FFFF"/>
<rect x="377.274" y="681.226" width="28" height="80.5" rx="14" transform="rotate(32.3947 377.274 681.226)" fill="#F8FFFF"/>
<rect x="538.417" y="569.111" width="28" height="80.5" rx="14" transform="rotate(32.3947 538.417 569.111)" fill="#F7FFFF"/>
<rect x="474.244" y="528.394" width="28" height="80.5" rx="14" transform="rotate(32.3947 474.244 528.394)" fill="#F3FFFF"/>
<rect x="602.589" y="609.827" width="28" height="80.5" rx="14" transform="rotate(32.3947 602.589 609.827)" fill="#F5FFFF"/>
<rect x="313.101" y="640.509" width="28" height="80.5" rx="14" transform="rotate(32.3947 313.101 640.509)" fill="#EDFBFF"/>
<rect x="248.928" y="599.792" width="28" height="80.5" rx="14" transform="rotate(32.3947 248.928 599.792)" fill="#F1FFFF"/>
<rect x="200.443" y="676.208" width="28" height="80.5" rx="14" transform="rotate(32.3947 200.443 676.208)" fill="#F8FFFF"/>
<rect x="136.27" y="635.492" width="28" height="80.5" rx="14" transform="rotate(32.3947 136.27 635.492)" fill="#F0FEFF"/>
<rect x="72.0974" y="594.775" width="28" height="80.5" rx="14" transform="rotate(32.3947 72.0974 594.775)" fill="#F1FFFF"/>
<rect x="184.755" y="559.075" width="28" height="80.5" rx="14" transform="rotate(32.3947 184.755 559.075)" fill="#F2FFFF"/>
<rect x="233.241" y="482.659" width="28" height="80.5" rx="14" transform="rotate(32.3947 233.241 482.659)" fill="#F8FFFF"/>
<rect x="588.325" y="64.8792" width="28" height="80.5" rx="14" transform="rotate(32.3947 588.325 64.8792)" fill="#E9F7FF"/>
<rect x="539.839" y="141.295" width="28" height="80.5" rx="14" transform="rotate(32.3947 539.839 141.295)" fill="#F4FFFF"/>
<rect x="491.354" y="217.711" width="28" height="80.5" rx="14" transform="rotate(32.3947 491.354 217.711)" fill="#E7F5FF"/>
<rect x="796.53" y="304.163" width="28" height="80.5" rx="14" transform="rotate(32.3947 796.53 304.163)" fill="#EFFDFF"/>
<rect x="893.5" y="151.33" width="28" height="80.5" rx="14" transform="rotate(32.3947 893.5 151.33)" fill="#F7FFFF"/>
<rect x="957.673" y="192.047" width="28" height="80.5" rx="14" transform="rotate(32.3947 957.673 192.047)" fill="#F1FFFF"/>
<rect x="1214.36" y="354.915" width="28" height="80.5" rx="14" transform="rotate(32.3947 1214.36 354.915)" fill="#F5FFFF"/>
<rect x="1117.39" y="507.747" width="28" height="80.5" rx="14" transform="rotate(32.3947 1117.39 507.747)" fill="#E7F5FF"/>
<rect x="1053.22" y="467.03" width="28" height="80.5" rx="14" transform="rotate(32.3947 1053.22 467.03)" fill="#FAFFFF"/>
<rect x="1068.91" y="584.163" width="28" height="80.5" rx="14" transform="rotate(32.3947 1068.91 584.163)" fill="#EAF8FF"/>
<rect x="1133.08" y="624.88" width="28" height="80.5" rx="14" transform="rotate(32.3947 1133.08 624.88)" fill="#E9F6FF"/>
<rect x="1197.25" y="665.597" width="28" height="80.5" rx="14" transform="rotate(32.3947 1197.25 665.597)" fill="#EFFDFF"/>
<rect x="1261.43" y="706.314" width="28" height="80.5" rx="14" transform="rotate(32.3947 1261.43 706.314)" fill="#F9FFFF"/>
<rect x="1245.74" y="589.181" width="28" height="80.5" rx="14" transform="rotate(32.3947 1245.74 589.181)" fill="#F3FFFF"/>
<rect x="1309.91" y="629.898" width="28" height="80.5" rx="14" transform="rotate(32.3947 1309.91 629.898)" fill="#F5FFFF"/>
<rect x="860.703" y="344.88" width="28" height="80.5" rx="14" transform="rotate(32.3947 860.703 344.88)" fill="#EFFDFF"/>
<rect x="1006.16" y="115.631" width="28" height="80.5" rx="14" transform="rotate(32.3947 1006.16 115.631)" fill="#F5FFFF"/>
<rect x="1070.33" y="156.348" width="28" height="80.5" rx="14" transform="rotate(32.3947 1070.33 156.348)" fill="#F9FFFF"/>
<rect x="1134.5" y="197.065" width="28" height="80.5" rx="14" transform="rotate(32.3947 1134.5 197.065)" fill="#F7FFFF"/>
<rect x="1182.99" y="120.649" width="28" height="80.5" rx="14" transform="rotate(32.3947 1182.99 120.649)" fill="#F3FFFF"/>
<rect x="1198.68" y="237.781" width="28" height="80.5" rx="14" transform="rotate(32.3947 1198.68 237.781)" fill="#EFFDFF"/>
<rect x="1247.16" y="161.365" width="28" height="80.5" rx="14" transform="rotate(32.3947 1247.16 161.365)" fill="#F4FFFF"/>
<rect x="1295.65" y="84.9492" width="28" height="80.5" rx="14" transform="rotate(32.3947 1295.65 84.9492)" fill="#EDFBFF"/>
<rect x="1311.33" y="202.082" width="28" height="80.5" rx="14" transform="rotate(32.3947 1311.33 202.082)" fill="#F5FFFF"/>
<rect x="990.471" y="-1.5022" width="28" height="80.5" rx="14" transform="rotate(32.3947 990.471 -1.5022)" fill="#F5FFFF"/>
<rect x="442.869" y="294.127" width="28" height="80.5" rx="14" transform="rotate(32.3947 442.869 294.127)" fill="#F4FFFF"/>
<rect x="1020.42" y="660.579" width="28" height="80.5" rx="14" transform="rotate(32.3947 1020.42 660.579)" fill="#E9F7FF"/>
<rect x="1084.6" y="701.296" width="28" height="80.5" rx="14" transform="rotate(32.3947 1084.6 701.296)" fill="#EFFDFF"/>
<rect x="956.251" y="619.863" width="28" height="80.5" rx="14" transform="rotate(32.3947 956.251 619.863)" fill="#E9F7FF"/>
<rect x="1148.77" y="742.013" width="28" height="80.5" rx="14" transform="rotate(32.3947 1148.77 742.013)" fill="#EFFDFF"/>
<rect x="1212.94" y="782.73" width="28" height="80.5" rx="14" transform="rotate(32.3947 1212.94 782.73)" fill="#FBFFFF"/>
<rect x="1036.11" y="777.713" width="28" height="80.5" rx="14" transform="rotate(32.3947 1036.11 777.713)" fill="#F4FFFF"/>
<rect x="461.712" y="477.215" width="28" height="80.5" rx="14" transform="rotate(32.3947 461.712 477.215)" fill="#EFFDFF"/>
<rect x="413.227" y="553.632" width="28" height="80.5" rx="14" transform="rotate(32.3947 413.227 553.632)" fill="#F7FFFF"/>
<rect x="316.257" y="706.464" width="28" height="80.5" rx="14" transform="rotate(32.3947 316.257 706.464)" fill="#F8FFFF"/>
<rect x="397.54" y="436.499" width="28" height="80.5" rx="14" transform="rotate(32.3947 397.54 436.499)" fill="#F7FFFF"/>
<rect x="349.054" y="512.915" width="28" height="80.5" rx="14" transform="rotate(32.3947 349.054 512.915)" fill="#F4FFFF"/>
<rect x="284.882" y="472.198" width="28" height="80.5" rx="14" transform="rotate(32.3947 284.882 472.198)" fill="#F6FFFF"/>
<rect x="300.569" y="589.331" width="28" height="80.5" rx="14" transform="rotate(32.3947 300.569 589.331)" fill="#F3FFFF"/>
<rect x="236.396" y="548.614" width="28" height="80.5" rx="14" transform="rotate(32.3947 236.396 548.614)" fill="#F7FFFF"/>
<rect x="252.084" y="665.747" width="28" height="80.5" rx="14" transform="rotate(32.3947 252.084 665.747)" fill="#F7FFFF"/>
<rect x="187.911" y="625.03" width="28" height="80.5" rx="14" transform="rotate(32.3947 187.911 625.03)" fill="#F5FFFF"/>
<rect x="139.426" y="701.447" width="28" height="80.5" rx="14" transform="rotate(32.3947 139.426 701.447)" fill="#F5FFFF"/>
<rect x="123.739" y="584.313" width="28" height="80.5" rx="14" transform="rotate(32.3947 123.739 584.313)" fill="#ECFAFF"/>
<rect x="172.224" y="507.897" width="28" height="80.5" rx="14" transform="rotate(32.3947 172.224 507.897)" fill="#FBFFFF"/>
<rect x="220.709" y="431.481" width="28" height="80.5" rx="14" transform="rotate(32.3947 220.709 431.481)" fill="#FAFFFF"/>
<rect x="87.785" y="711.908" width="28" height="80.5" rx="14" transform="rotate(32.3947 87.785 711.908)" fill="#F8FFFF"/>
<rect x="75.2533" y="660.729" width="28" height="80.5" rx="14" transform="rotate(32.3947 75.2533 660.729)" fill="#F0FEFF"/>
<rect x="524.152" y="24.1624" width="28" height="80.5" rx="14" transform="rotate(32.3947 524.152 24.1624)" fill="#EFFDFF"/>
<rect x="813.641" y="-6.51953" width="28" height="80.5" rx="14" transform="rotate(32.3947 813.641 -6.51953)" fill="#E9F7FF"/>
<rect x="410.071" y="487.677" width="28" height="80.5" rx="14" transform="rotate(32.3947 410.071 487.677)" fill="#EFFDFF"/>
<rect x="345.899" y="446.96" width="28" height="80.5" rx="14" transform="rotate(32.3947 345.899 446.96)" fill="#FAFFFF"/>
<rect x="458.556" y="411.26" width="28" height="80.5" rx="14" transform="rotate(32.3947 458.556 411.26)" fill="#F7FFFF"/>
<rect x="475.667" y="100.578" width="28" height="80.5" rx="14" transform="rotate(32.3947 475.667 100.578)" fill="#E9F7FF"/>
<rect x="572.637" y="-52.2542" width="28" height="80.5" rx="14" transform="rotate(32.3947 572.637 -52.2542)" fill="#F4FFFF"/>
<rect x="652.498" y="105.596" width="28" height="80.5" rx="14" transform="rotate(32.3947 652.498 105.596)" fill="#E9F7FF"/>
<rect x="765.155" y="69.8965" width="28" height="80.5" rx="14" transform="rotate(32.3947 765.155 69.8965)" fill="#F2FFFF"/>
<rect x="411.494" y="59.8616" width="28" height="80.5" rx="14" transform="rotate(32.3947 411.494 59.8616)" fill="#F5FFFF"/>
<rect x="120.583" y="518.359" width="28" height="80.5" rx="14" transform="rotate(32.3947 120.583 518.359)" fill="#EFFDFF"/>
<rect x="169.068" y="441.942" width="28" height="80.5" rx="14" transform="rotate(32.3947 169.068 441.942)" fill="#F8FFFF"/>
<rect x="363.009" y="136.278" width="28" height="80.5" rx="14" transform="rotate(32.3947 363.009 136.278)" fill="#F3FFFF"/>
<rect x="459.979" y="-16.5547" width="28" height="80.5" rx="14" transform="rotate(32.3947 459.979 -16.5547)" fill="#EFFDFF"/>
<rect x="347.321" y="19.1445" width="28" height="80.5" rx="14" transform="rotate(32.3947 347.321 19.1445)" fill="#F8FFFF"/>
<rect x="298.836" y="95.5608" width="28" height="80.5" rx="14" transform="rotate(32.3947 298.836 95.5608)" fill="#F5FFFF"/>
<rect x="395.807" y="-57.2715" width="28" height="80.5" rx="14" transform="rotate(32.3947 395.807 -57.2715)" fill="#FBFFFF"/>
<rect x="201.865" y="248.393" width="28" height="80.5" rx="14" transform="rotate(32.3947 201.865 248.393)" fill="#F7FFFF"/>
<rect x="137.693" y="207.677" width="28" height="80.5" rx="14" transform="rotate(32.3947 137.693 207.677)" fill="#EFFDFF"/>
<rect x="73.5201" y="166.959" width="28" height="80.5" rx="14" transform="rotate(32.3947 73.5201 166.959)" fill="#F6FFFF"/>
<rect x="186.178" y="131.26" width="28" height="80.5" rx="14" transform="rotate(32.3947 186.178 131.26)" fill="#F1FFFF"/>
<rect x="122.005" y="90.5432" width="28" height="80.5" rx="14" transform="rotate(32.3947 122.005 90.5432)" fill="#EEFCFF"/>
<rect x="57.8328" y="49.8264" width="28" height="80.5" rx="14" transform="rotate(32.3947 57.8328 49.8264)" fill="#F1FFFF"/>
<rect x="42.1453" y="-67.3066" width="28" height="80.5" rx="14" transform="rotate(32.3947 42.1453 -67.3066)" fill="#FBFFFF"/>
<rect x="234.663" y="54.844" width="28" height="80.5" rx="14" transform="rotate(32.3947 234.663 54.844)" fill="#F1FFFF"/>
<rect x="170.491" y="14.127" width="28" height="80.5" rx="14" transform="rotate(32.3947 170.491 14.127)" fill="#F8FFFF"/>
<rect x="106.318" y="-26.5898" width="28" height="80.5" rx="14" transform="rotate(32.3947 106.318 -26.5898)" fill="#F7FFFF"/>
<rect x="89.2076" y="284.093" width="28" height="80.5" rx="14" transform="rotate(32.3947 89.2076 284.093)" fill="#F8FFFF"/>
<rect x="11.0807" y="620.013" width="28" height="80.5" rx="14" transform="rotate(32.3947 11.0807 620.013)" fill="#F7FFFF"/>
<rect x="12.5034" y="192.197" width="28" height="80.5" rx="14" transform="rotate(32.3947 12.5034 192.197)" fill="#FAFFFF"/>
<rect x="-3.18408" y="75.0647" width="28" height="80.5" rx="14" transform="rotate(32.3947 -3.18408 75.0647)" fill="#F3FFFF"/>
<rect x="26.7682" y="737.146" width="28" height="80.5" rx="14" transform="rotate(32.3947 26.7682 737.146)" fill="#F7FFFF"/>
<rect x="23.6122" y="671.191" width="28" height="80.5" rx="14" transform="rotate(32.3947 23.6122 671.191)" fill="#F1FFFF"/>
<rect x="9.34741" y="126.242" width="28" height="80.5" rx="14" transform="rotate(32.3947 9.34741 126.242)" fill="#F1FFFF"/>
<rect x="-6.33997" y="9.10962" width="28" height="80.5" rx="14" transform="rotate(32.3947 -6.33997 9.10962)" fill="#F9FFFF"/>
<rect x="25.0349" y="243.376" width="28" height="80.5" rx="14" transform="rotate(32.3947 25.0349 243.376)" fill="#F8FFFF"/>
<rect x="1360.94" y="620.013" width="28" height="80.5" rx="14" transform="rotate(32.3947 1360.94 620.013)" fill="#F7FFFF"/>
<rect x="1362.37" y="192.197" width="28" height="80.5" rx="14" transform="rotate(32.3947 1362.37 192.197)" fill="#FAFFFF"/>
<rect x="1346.68" y="75.0645" width="28" height="80.5" rx="14" transform="rotate(32.3947 1346.68 75.0645)" fill="#F3FFFF"/>
<rect x="1376.63" y="737.146" width="28" height="80.5" rx="14" transform="rotate(32.3947 1376.63 737.146)" fill="#F7FFFF"/>
<rect x="1373.47" y="671.191" width="28" height="80.5" rx="14" transform="rotate(32.3947 1373.47 671.191)" fill="#F1FFFF"/>
<rect x="1359.21" y="126.242" width="28" height="80.5" rx="14" transform="rotate(32.3947 1359.21 126.242)" fill="#F1FFFF"/>
<rect x="1343.52" y="9.10962" width="28" height="80.5" rx="14" transform="rotate(32.3947 1343.52 9.10962)" fill="#F9FFFF"/>
<rect x="1374.9" y="243.376" width="28" height="80.5" rx="14" transform="rotate(32.3947 1374.9 243.376)" fill="#F8FFFF"/>
<rect width="1350" height="800" fill="url(#paint0_linear)"/>
</g>
<defs>
<linearGradient id="paint0_linear" x1="675" y1="0" x2="675" y2="800" gradientUnits="userSpaceOnUse">
<stop stop-color="white" stop-opacity="0"/>
<stop offset="1" stop-color="white"/>
</linearGradient>
<clipPath id="clip0">
<rect width="1350" height="800" fill="white"/>
</clipPath>
</defs>
</svg>
